Coordinates
version=1
nRows=7
nColumns=46
inDegrees=yes

Units are S.I. units (second, meters, Newtons, ...)
Angles are in degrees.

endheader
time	pelvis_tilt	pelvis_list	pelvis_rotation	pelvis_tx	pelvis_ty	pelvis_tz	bb_angle	bb_tx	bb_ty	bb_tz	hip_flexion_r	hip_adduction_r	hip_rotation_r	knee_angle_r	knee_angle_r_beta	ankle_angle_r	subtalar_angle_r	mtp_angle_r	crank_angle_r	hip_flexion_l	hip_adduction_l	hip_rotation_l	knee_angle_l	knee_angle_l_beta	ankle_angle_l	subtalar_angle_l	mtp_angle_l	crank_angle_l	lumbar_extension	lumbar_bending	lumbar_rotation	arm_flex_r	arm_add_r	arm_rot_r	elbow_flex_r	pro_sup_r	wrist_flex_r	wrist_dev_r	arm_flex_l	arm_add_l	arm_rot_l	elbow_flex_l	pro_sup_l	wrist_flex_l	wrist_dev_l
      2.50000000	      0.79737302	     -7.33927283	     -1.27707453	      0.05784980	      1.17672657	     -0.26183229	      0.00000000	      0.50000000	      0.00000000	      0.25000000	     71.50523320	      4.60719486	      3.92623465	    110.78343363	      1.93353567	    -12.37872842	     -4.48940441	      0.00000000	      0.00000000	     24.91254513	    -12.14677186	     -5.28240821	     33.40138540	      0.58296415	     -3.96779757	      2.74778490	      0.00000000	      0.00000000	    -65.31643110	      5.91114196	      6.58481445	     89.49365328	     -8.60263577	     49.28453814	     31.26381216	     36.39832964	      0.00000000	      0.00000000	     88.70172312	    -10.92751876	     56.81625758	     23.95283403	     28.01550316	      0.00000000	      0.00000000
      2.50500000	      0.84993424	     -7.64673343	     -1.50791140	      0.05798626	      1.17714031	     -0.26276232	      0.00000000	      0.50000000	      0.00000000	      0.25000000	     72.13740290	      4.94169359	      3.80547829	    110.79206053	      1.93368624	    -11.87877624	     -4.42946144	      0.00000000	      0.00000000	     24.57665323	    -12.51247745	     -5.40350061	     33.78858791	      0.58972211	     -4.69452383	      2.49322832	      0.00000000	      0.00000000	    -65.38288312	      6.33885361	      6.82360495	     89.50822570	     -8.08432893	     49.15902207	     31.14514157	     36.28187241	      0.00000000	      0.00000000	     88.55678724	    -11.23380036	     57.08098671	     23.79403278	     28.05846780	      0.00000000	      0.00000000
      2.51000000	      0.74267565	     -7.98076410	     -1.76060225	      0.05795018	      1.17726729	     -0.26369085	      0.00000000	      0.50000000	      0.00000000	      0.25000000	     72.90410569	      5.25152760	      3.64111017	    110.67787539	      1.93169333	    -11.34500758	     -4.13162234	      0.00000000	      0.00000000	     24.55638926	    -12.84411560	     -5.25758479	     34.43429230	      0.60099178	     -5.22709344	      1.81801922	      0.00000000	      0.00000000	    -65.26241853	      6.91276270	      6.65642348	     89.53908961	     -5.87654313	     47.33666771	     29.37453854	     34.97383467	      0.00000000	      0.00000000	     88.52175174	    -12.69740439	     59.79764648	     23.86154720	     28.78725803	      0.00000000	      0.00000000
      2.51500000	      0.77078146	     -8.28298230	     -2.13490110	      0.05782955	      1.17772725	     -0.26436842	      0.00000000	      0.50000000	      0.00000000	      0.25000000	     73.41280502	      5.71155722	      3.53554289	    110.42840814	      1.92733931	    -10.82072798	     -4.09592941	      0.00000000	      0.00000000	     24.40146963	    -13.23484598	     -5.33266204	     35.16414913	      0.61373018	     -5.78109310	      1.25609837	      0.00000000	      0.00000000	    -65.41669963	      7.19301000	      6.98662801	     89.56383914	     -5.48465359	     47.27242209	     29.57582327	     34.91178746	      0.00000000	      0.00000000	     88.47524662	    -12.96789837	     59.95916900	     23.75818690	     28.82844617	      0.00000000	      0.00000000
      2.52000000	      0.67990646	     -8.61109544	     -2.52111982	      0.05758369	      1.17792130	     -0.26486679	      0.00000000	      0.50000000	      0.00000000	      0.25000000	     74.00626422	      6.18516738	      3.37843552	    110.09734406	      1.92156115	    -10.23592953	     -3.95373928	      0.00000000	      0.00000000	     24.49735177	    -13.61973971	     -5.18717595	     36.09530633	      0.62998194	     -6.32674714	      0.43956822	      0.00000000	      0.00000000	    -65.45419078	      7.50790593	      7.29358430	     89.58421932	     -4.90172843	     47.10223158	     29.68227842	     34.78678181	      0.00000000	      0.00000000	     88.40415190	    -13.40978110	     60.21511522	     23.66672719	     28.89593245	      0.00000000	      0.00000000
      2.52500000	      0.47414112	     -8.87996612	     -2.81541276	      0.05709589	      1.17785753	     -0.26550735	      0.00000000	      0.50000000	      0.00000000	      0.25000000	     74.66475902	      6.49752231	      3.23145032	    109.67700552	      1.91422486	     -9.69268839	     -3.80943463	      0.00000000	      0.00000000	     24.86698170	    -13.82385403	     -4.69127662	     37.19647933	      0.64920103	     -6.92854268	     -0.69124083	      0.00000000	      0.00000000	    -65.38198995	      8.00651718	      7.06034559	     89.60446218	     -3.02459112	     45.34498773	     28.85922988	     33.35044275	      0.00000000	      0.00000000	     88.38207914	    -15.04321643	     62.44237287	     24.36122342	     29.76780353	      0.00000000	      0.00000000
      2.53000000	      0.44403260	     -9.08044912	     -3.28989286	      0.05665097	      1.17800043	     -0.26576572	      0.00000000	      0.50000000	      0.00000000	      0.25000000	     75.05453216	      6.98848406	      3.21037068	    109.16756486	      1.90533344	     -9.07480198	     -3.73109123	      0.00000000	      0.00000000	     25.04236939	    -14.09456486	     -4.55044409	     38.45020512	      0.67108268	     -7.32788350	     -1.52371552	      0.00000000	      0.00000000	    -65.54624192	      8.12048014	      7.34927176	     89.63339061	     -2.57883938	     45.28070038	     29.09943125	     33.27694818	      0.00000000	      0.00000000	     88.38017376	    -15.31739459	     62.52123044	     24.25406851	     29.80032142	      0.00000000	      0.00000000
